<svg xmlns="http://www.w3.org/2000/svg" width="100" height="100" viewBox="0 0 512 512">
    <style>
        path {
            fill: lightgrey;
        }
        @media (prefers-color-scheme: light) {
            path {
                fill: grey;
            }
        }
    </style>
    <path d="M264.533 273.067A8.536 8.536 0 0 0 256 281.6V384a8.536 8.536 0 0 0 8.533 8.533h85.333c4.71 0 8.533-3.823 8.533-8.533s-3.823-8.533-8.533-8.533h-76.8V281.6c.001-4.71-3.822-8.533-8.533-8.533z"/>
    <path d="M170.667 332.8V230.4a8.536 8.536 0 0 0-8.533-8.533h-102.4c-4.71 0-8.533 3.823-8.533 8.533s3.823 8.533 8.533 8.533H153.6v85.333H59.733a8.536 8.536 0 0 0-8.533 8.533v102.4c0 4.71 3.823 8.533 8.533 8.533s8.533-3.823 8.533-8.533v-93.867H102.4v153.6H34.133c-9.412 0-17.067-7.654-17.067-17.067V290.133h93.867c4.71 0 8.533-3.823 8.533-8.533s-3.823-8.533-8.533-8.533H17.067v-85.333h93.867c4.71 0 8.533-3.823 8.533-8.533s-3.823-8.533-8.533-8.533H68.267v-59.733c0-4.71-3.823-8.533-8.533-8.533s-8.533 3.823-8.533 8.533v59.733H17.067V34.133c0-9.412 7.654-17.067 17.067-17.067H51.2v42.667a8.536 8.536 0 0 0 8.533 8.533H102.4V128c0 4.71 3.823 8.533 8.533 8.533s8.533-3.823 8.533-8.533V59.733a8.536 8.536 0 0 0-8.533-8.533H68.267V17.067H307.2v153.6H170.667v-102.4H256v51.2h-34.133v-8.533a8.536 8.536 0 0 0-8.533-8.533 8.536 8.536 0 0 0-8.533 8.533V128a8.536 8.536 0 0 0 8.533 8.533h51.2a8.536 8.536 0 0 0 8.533-8.533V59.733a8.536 8.536 0 0 0-8.533-8.533h-102.4a8.536 8.536 0 0 0-8.533 8.533V179.2a8.536 8.536 0 0 0 8.533 8.533h238.933c4.71 0 8.533-3.823 8.533-8.533s-3.823-8.533-8.533-8.533h-76.8V8.533A8.536 8.536 0 0 0 315.734 0h-281.6C15.309 0 0 15.309 0 34.133v443.733C0 496.691 15.309 512 34.133 512h76.8a8.536 8.536 0 0 0 8.533-8.533V341.333h42.667c4.711 0 8.534-3.823 8.534-8.533z"/>
    <path d="M366.933 136.533a8.536 8.536 0 0 0 8.533-8.533V59.733c0-4.71-3.823-8.533-8.533-8.533s-8.533 3.823-8.533 8.533V128a8.536 8.536 0 0 0 8.533 8.533zM452.267 341.333a8.536 8.536 0 0 0 8.533-8.533V230.4a8.536 8.536 0 0 0-8.533-8.533H264.533c-4.71 0-8.533 3.823-8.533 8.533s3.823 8.533 8.533 8.533h179.2V332.8c0 4.71 3.823 8.533 8.534 8.533zM221.867 230.4a8.536 8.536 0 0 0-8.533-8.533 8.536 8.536 0 0 0-8.533 8.533v102.4a8.536 8.536 0 0 0 8.533 8.533 8.536 8.536 0 0 0 8.533-8.533V230.4z"/>
    <path d="M477.867 0H366.933c-4.71 0-8.533 3.823-8.533 8.533s3.823 8.533 8.533 8.533h110.933c9.412 0 17.067 7.654 17.067 17.067v85.333h-68.267v-51.2h25.6c4.71 0 8.533-3.823 8.533-8.533s-3.823-8.533-8.533-8.533h-34.133a8.536 8.536 0 0 0-8.533 8.533V128a8.536 8.536 0 0 0 8.533 8.533h25.6V179.2a8.536 8.536 0 0 0 8.533 8.533 8.536 8.536 0 0 0 8.533-8.533v-42.667h34.133v238.933h-42.667c-4.71 0-8.533 3.823-8.533 8.533s3.823 8.533 8.533 8.533h42.667v34.133H409.6V281.6a8.536 8.536 0 0 0-8.533-8.533h-85.333a8.536 8.536 0 0 0-8.533 8.533v51.2a8.536 8.536 0 0 0 8.533 8.533h34.133a8.536 8.536 0 0 0 8.533-8.533 8.536 8.536 0 0 0-8.533-8.533h-25.6v-34.133h68.267V435.2a8.536 8.536 0 0 0 8.533 8.533h93.867v34.133c0 9.412-7.654 17.067-17.067 17.067h-307.2v-51.2h179.2c4.71 0 8.533-3.823 8.533-8.533s-3.823-8.533-8.533-8.533H162.133a8.536 8.536 0 0 0-8.533 8.533v68.267a8.536 8.536 0 0 0 8.533 8.533h315.733C496.691 512 512 496.691 512 477.867V34.133C512 15.309 496.691 0 477.867 0z"/>
    <path d="M213.333 375.467h-51.2c-4.71 0-8.533 3.823-8.533 8.533s3.823 8.533 8.533 8.533h51.2c4.71 0 8.533-3.823 8.533-8.533s-3.822-8.533-8.533-8.533z"/>
</svg>